# xmcd CD database file
#
# Track frame offsets:
#	150
#	18741
#	32994
#	44892
#	67588
#	85662
#	94691
#	111571
#	128024
#	142239
#	162533
#	180072
#	193441
#	211449
#	227800
#	239735
#	253963
#	271463
#	282679
#	294592
#
# Disc length: 4069 seconds
#
# Revision: 2
# Processed by: cddbd v1.4b41PL1 Copyright (c) Steve Scherf et al.
# Submitted via: Feurio! 1.60 - http://www.feurio.com
#
DISCID=250fe314,450fe314
DTITLE=Various Artist - Harry IV The definitive collection
DYEAR=1900
DGENRE=
TTITLE0=America - A horse with no name
TTITLE1=Steve Miller Band - Serenade from the stars
TTITLE2=Ray Gelato Giants - Tu  vuo'fa l'americano
TTITLE3=BSO Swing Kids - Sing, sing, sing (With a sing)
TTITLE4=Propellerheads and Shirley Bassey - History repeating
TTITLE5=Tom Joses - It's not inusual
TTITLE6=Stereo MC's - Conneted
TTITLE7=Snap - The power
TTITLE8=Inxs - Need you tonight
TTITLE9=Slade - Cum'on feel the noize
TTITLE10=Steve Harley - Make me smile
TTITLE11=Gary Glitter - Rock and roll 
TTITLE12=Sweet - Ballroom Blitz
TTITLE13=Depecje Mode - Personal Jesus
TTITLE14=Soft Cell - Tainted love
TTITLE15=Jackie Deshannon - Whata the world
TTITLE16=Lenny Kravitz - Always on the run
TTITLE17=Jann Arden - You don't know me
TTITLE18=Sam Cooke - Bring it on home to me
TTITLE19=Sam Cooke  - Another saturday night
EXTD=
EXTT0=
EXTT1=
EXTT2=
EXTT3=
EXTT4=
EXTT5=
EXTT6=
EXTT7=
EXTT8=
EXTT9=
EXTT10=
EXTT11=
EXTT12=
EXTT13=
EXTT14=
EXTT15=
EXTT16=
EXTT17=
EXTT18=
EXTT19=
PLAYORDER=
